# xmcd
#
# Track frame offsets:
#	182
#	15797
#	32002
#	49272
#	67230
#	85100
#	102540
#	120250
#	137232
#	153665
#	171000
#
# Disc length: 2656 seconds
#
# Revision: 1
# Processed by: cddbd v1.5.1PL0 Copyright (c) Steve Scherf et al.
# Submitted via: audiograbber 1.80
#
DISCID=8b0a5e0b
DTITLE=Freddie Mercury - The Freddie Mercury Album
DYEAR=1900
DGENRE=
TTITLE0=The Great Pretender
TTITLE1=Foolin' Around
TTITLE2=Time
TTITLE3=Your Kind Of Lover
TTITLE4=Exercises In Free Love
TTITLE5=In My Defence
TTITLE6=Mr. Bad Guy
TTITLE7=Let's Turn It On
TTITLE8=Living On My Own
TTITLE9=Love Kills
TTITLE10=Barcelona
EXTD=
EXTT0=
EXTT1=
EXTT2=
EXTT3=
EXTT4=
EXTT5=
EXTT6=
EXTT7=
EXTT8=
EXTT9=
EXTT10=
PLAYORDER=
